<?xml version="1.0" encoding="UTF-8"?>
<svg version="1.1" xmlns="http://www.w3.org/2000/svg" width="512" height="512">
<path d="M0 0 C7.27649766 5.24443226 12.24610896 11.85570208 14.5859375 20.55859375 C14.82258743 23.21402606 14.95585316 25.71961254 14.9609375 28.37109375 C14.98542969 29.03173828 15.00992187 29.69238281 15.03515625 30.37304688 C15.08773398 39.42517856 9.93807097 46.97848361 5.5859375 54.62109375 C2.42601204 60.19884097 -0.59117287 65.80172855 -3.4140625 71.55859375 C-2.78862549 71.8632959 -2.16318848 72.16799805 -1.51879883 72.48193359 C4.27987626 75.44819704 8.63245543 80.54442162 12.78125 85.44921875 C13.97292397 86.84208443 15.19696449 88.20796971 16.453125 89.54296875 C33.79192855 108.06554604 45.08772881 132.31303525 51.3359375 156.68359375 C51.53485596 157.45823975 51.73377441 158.23288574 51.9387207 159.03100586 C55.00299246 171.67326304 55.96784837 184.22387719 55.8984375 197.18359375 C55.89595001 197.92937683 55.89346252 198.67515991 55.89089966 199.44354248 C55.74488528 227.83404781 48.87349567 253.02010377 36.5859375 278.55859375 C-5.09347432 356.26883687 -5.09347432 356.26883687 -18.4140625 438.55859375 C-16.82806172 440.78239645 -15.0539652 442.67109982 -13.171875 444.6484375 C-7.89132558 450.38663454 -7.82018028 456.53008624 -8.00390625 464.046875 C-8.81071951 470.95473326 -11.67078576 476.2534041 -16.7265625 480.99609375 C-24.00552075 486.50998272 -31.41379219 487.60121335 -40.4140625 486.55859375 C-51.79119716 483.0170948 -62.56439776 476.59571186 -73.1640625 471.24609375 C-75.03627015 470.30496408 -76.90866457 469.36420589 -78.78125 468.42382812 C-83.32768511 466.13969276 -87.87156456 463.85054835 -92.4140625 461.55859375 C-93.1771875 462.19796875 -93.9403125 462.83734375 -94.7265625 463.49609375 C-97.4140625 465.55859375 -97.4140625 465.55859375 -100.4140625 466.55859375 C-101.78317745 468.54402898 -101.78317745 468.54402898 -103.0390625 470.99609375 C-110.83993953 484.36630108 -122.48397333 493.82460351 -137.5625 497.93359375 C-150.05310863 499.96046736 -163.88652272 500.28004521 -175.4140625 494.55859375 C-176.42597656 494.06101562 -177.43789062 493.5634375 -178.48046875 493.05078125 C-192.69008257 485.40355479 -201.45643077 473.78901047 -206.4140625 458.55859375 C-209.82347149 446.33508764 -209.73734905 431.06270955 -203.35498047 419.66772461 C-202.19711951 417.07230146 -202.21462943 415.13705026 -202.2890625 412.30859375 C-202.30710938 411.4165625 -202.32515625 410.52453125 -202.34375 409.60546875 C-202.36695313 408.93 -202.39015625 408.25453125 -202.4140625 407.55859375 C-211.40323178 403.05228015 -220.39356666 398.54830081 -229.38528538 394.04707623 C-233.56314786 391.95556636 -237.74064586 389.86333608 -241.91723633 387.76928711 C-265.4893154 375.94362821 -265.4893154 375.94362821 -289.23445129 364.47102356 C-301.13926724 358.81804769 -312.89106161 352.85471097 -324.6640625 346.93359375 C-329.29302614 344.60558448 -333.92314929 342.27991434 -338.5546875 339.95703125 C-339.66082397 339.40126404 -340.76696045 338.84549683 -341.90661621 338.27288818 C-346.94479749 335.75135338 -351.99240139 333.2661958 -357.10351562 330.89550781 C-357.97280701 330.49216217 -358.84209839 330.08881653 -359.73773193 329.67324829 C-361.3188678 328.9456589 -362.90372809 328.2260749 -364.4932251 327.51693726 C-370.75200347 324.64749675 -375.95525127 321.28707688 -379.2265625 314.99609375 C-379.82404297 313.88041016 -379.82404297 313.88041016 -380.43359375 312.7421875 C-383.41146964 306.11018501 -383.29974792 299.28614648 -380.8515625 292.49609375 C-377.5071984 284.97712132 -372.73420871 279.19574878 -364.94140625 276.171875 C-358.87733175 274.70037624 -352.65846881 274.9600854 -346.6640625 276.55859375 C-342.81859266 276.55859375 -342.36516156 276.0610487 -339.6640625 273.49609375 C-334.23637915 267.47230645 -329.3115671 261.01454943 -324.4140625 254.55859375 C-323.97191406 253.98254395 -323.52976562 253.40649414 -323.07421875 252.81298828 C-296.31405509 217.86397633 -275.47259461 177.47739712 -256.2109375 138.03515625 C-246.58955032 118.34090271 -235.41043273 101.63903893 -220.4140625 85.55859375 C-219.71667969 84.80707031 -219.01929688 84.05554688 -218.30078125 83.28125 C-189.1848639 52.99430855 -146.36469214 36.80818359 -104.91796875 35.47851562 C-98.87517945 35.41685451 -92.92433054 35.8387814 -86.9140625 36.43359375 C-86.04136719 36.51222656 -85.16867187 36.59085938 -84.26953125 36.671875 C-78.96364596 37.1828121 -73.82652476 38.0004096 -68.62304688 39.16064453 C-66.13204807 39.67679127 -66.13204807 39.67679127 -62.4140625 39.55859375 C-62.02138184 38.84316406 -61.62870117 38.12773438 -61.22412109 37.390625 C-59.74166324 34.69667279 -58.25372531 32.00583948 -56.76220703 29.31689453 C-55.80997004 27.59637 -54.86389801 25.87243801 -53.91796875 24.1484375 C-47.10927139 11.89278225 -40.25011541 0.69355822 -26.2734375 -3.78515625 C-17.21773984 -5.86351309 -8.01912938 -4.78812094 0 0 Z " fill="#EFAA65" transform="translate(395.4140625,13.44140625)"/>
<path d="M0 0 C7.27649766 5.24443226 12.24610896 11.85570208 14.5859375 20.55859375 C14.82258743 23.21402606 14.95585316 25.71961254 14.9609375 28.37109375 C14.98542969 29.03173828 15.00992187 29.69238281 15.03515625 30.37304688 C15.08776759 39.43096639 9.92225236 47.02277083 5.5859375 54.68359375 C5.16054688 55.44285156 4.73515625 56.20210937 4.296875 56.984375 C1.75038811 61.52274581 -0.82701909 66.04324483 -3.4140625 70.55859375 C-7.19291183 69.2233113 -9.91119797 67.5445838 -13.0390625 65.05859375 C-26.46540906 55.14181499 -41.69681681 48.87394448 -57.4140625 43.55859375 C-56.81980469 44.04585937 -56.22554687 44.533125 -55.61328125 45.03515625 C-33.15871864 64.24201384 -18.46799876 93.18413464 -15.4140625 122.55859375 C-14.06811658 150.0954114 -19.5077075 173.00417234 -31.33309937 197.73114014 C-39.00949604 213.81557616 -45.87146526 230.14586232 -52.36328125 246.73828125 C-52.61792648 247.38895569 -52.87257172 248.03963013 -53.13493347 248.71002197 C-54.43043729 252.02552839 -55.71523449 255.34471394 -56.98754883 258.66918945 C-57.50447347 260.00090954 -58.02163597 261.33253734 -58.5390625 262.6640625 C-58.98894531 263.83606201 -59.43882812 265.00806152 -59.90234375 266.21557617 C-67.00652694 281.92577974 -80.07644656 291.01329368 -95.4140625 297.55859375 C-109.97774941 302.84815268 -126.40704397 301.80874062 -140.45703125 295.421875 C-142.17755507 294.58316786 -143.89214198 293.73220545 -145.6015625 292.87109375 C-147.64576715 291.86705274 -149.690042 290.86315465 -151.734375 289.859375 C-152.82008789 289.32135254 -153.90580078 288.78333008 -155.02441406 288.22900391 C-158.45377792 286.53902209 -161.89604058 284.87876905 -165.34375 283.2265625 C-185.63526336 273.49205313 -205.7587002 263.42383006 -225.86547852 253.31445312 C-237.32636095 247.55848632 -248.81900807 241.889139 -260.40226746 236.38327026 C-268.60465856 232.48185571 -276.73895617 228.45524098 -284.8515625 224.37109375 C-286.19195832 223.69837048 -287.53245335 223.02584482 -288.87304688 222.35351562 C-292.05451455 220.75744944 -295.23469387 219.15883805 -298.4140625 217.55859375 C-297.07328944 213.98732355 -295.48010538 210.78689774 -293.53515625 207.5078125 C-292.95266113 206.51652344 -292.37016602 205.52523437 -291.77001953 204.50390625 C-291.13692871 203.42882812 -290.50383789 202.35375 -289.8515625 201.24609375 C-284.04296674 191.29114742 -278.44557984 181.23744385 -273.0390625 171.05859375 C-272.68857849 170.39927856 -272.33809448 169.73996338 -271.97698975 169.06066895 C-267.84062055 161.26006373 -263.81622824 153.41066296 -259.91015625 145.4921875 C-259.53729492 144.73801544 -259.16443359 143.98384338 -258.78027344 143.20681763 C-256.99524045 139.59198 -255.22272785 135.97197224 -253.47314453 132.33984375 C-244.96478577 114.86518197 -233.65836376 99.76031438 -220.4140625 85.55859375 C-219.71667969 84.80707031 -219.01929688 84.05554688 -218.30078125 83.28125 C-189.1848639 52.99430855 -146.36469214 36.80818359 -104.91796875 35.47851562 C-98.87517945 35.41685451 -92.92433054 35.8387814 -86.9140625 36.43359375 C-86.04136719 36.51222656 -85.16867187 36.59085938 -84.26953125 36.671875 C-78.96364596 37.1828121 -73.82652476 38.0004096 -68.62304688 39.16064453 C-66.13204807 39.67679127 -66.13204807 39.67679127 -62.4140625 39.55859375 C-62.02138184 38.84316406 -61.62870117 38.12773438 -61.22412109 37.390625 C-59.74166324 34.69667279 -58.25372531 32.00583948 -56.76220703 29.31689453 C-55.80997004 27.59637 -54.86389801 25.87243801 -53.91796875 24.1484375 C-47.10927139 11.89278225 -40.25011541 0.69355822 -26.2734375 -3.78515625 C-17.21773984 -5.86351309 -8.01912938 -4.78812094 0 0 Z " fill="#FEE166" transform="translate(395.4140625,13.44140625)"/>
<path d="M0 0 C0 0.66 0 1.32 0 2 C0.72615509 2.11892609 1.45231018 2.23785217 2.20046997 2.36038208 C5.0282629 3.00645732 7.21010828 3.92723067 9.79248047 5.23388672 C10.7189035 5.69882538 11.64532654 6.16376404 12.599823 6.64279175 C13.59555328 7.14996735 14.59128357 7.65714294 15.6171875 8.1796875 C17.18945602 8.97078415 17.18945602 8.97078415 18.79348755 9.77786255 C22.15687996 11.47125115 25.51613655 13.17264829 28.875 14.875 C33.24576524 17.0839717 37.61834177 19.28932193 41.9921875 21.4921875 C43.08553406 22.04320129 44.17888062 22.59421509 45.30535889 23.16192627 C52.31399271 26.68292453 59.35921762 30.11446794 66.4453125 33.4765625 C80.56054339 40.17433355 94.50004343 47.21887778 108.45703125 54.23876953 C120.09346153 60.08828311 131.73395015 65.91481089 143.5 71.5 C157.59625475 78.19130673 171.51783161 85.22782463 185.45703125 92.23876953 C198.04271585 98.56546347 210.64937562 104.8251192 223.37475586 110.86633301 C236.11875621 116.93362122 248.7033316 123.3228793 261.31152344 129.66601562 C272.98922302 135.53763887 284.67900662 141.3754436 296.46875 147.01953125 C297.3774585 147.45479126 298.28616699 147.89005127 299.22241211 148.33850098 C304.48844325 150.84563533 309.78636345 153.26711085 315.1217041 155.62319946 C322.4566767 158.90564017 328.80695036 161.78615115 333 169 C333.639375 170.03125 334.27875 171.0625 334.9375 172.125 C337.6121747 179.47614997 337.16725391 188.45423323 333.9375 195.5 C330.26130886 201.78876519 325.28314865 206.28515862 318.28515625 208.5234375 C301.30951274 212.06365717 285.84048218 201.05127136 271.25 193.6875 C269.37779235 192.74637033 267.50539793 191.80561214 265.6328125 190.86523438 C261.08637739 188.58109901 256.54249794 186.2919546 252 184 C250.8553125 184.9590625 250.8553125 184.9590625 249.6875 185.9375 C247 188 247 188 244 189 C242.63088505 190.98543523 242.63088505 190.98543523 241.375 193.4375 C233.57412297 206.80770733 221.93008917 216.26600976 206.8515625 220.375 C194.36095387 222.40187361 180.52753978 222.72145146 169 217 C167.98808594 216.50242187 166.97617188 216.00484375 165.93359375 215.4921875 C151.72397993 207.84496104 142.95763173 196.23041672 138 181 C134.59059101 168.77649389 134.67671345 153.5041158 141.05908203 142.10913086 C142.21694299 139.51370771 142.19943307 137.57845651 142.125 134.75 C142.10695312 133.85796875 142.08890625 132.9659375 142.0703125 132.046875 C142.04710937 131.37140625 142.02390625 130.6959375 142 130 C133.01083072 125.4936864 124.02049584 120.98970706 115.02877712 116.48848248 C110.85091464 114.39697261 106.67341664 112.30474233 102.49682617 110.21069336 C78.9247471 98.38503446 78.9247471 98.38503446 55.17961121 86.91242981 C43.27479526 81.25945394 31.52300089 75.29611722 19.75 69.375 C15.12103636 67.04699073 10.49091321 64.72132059 5.859375 62.3984375 C4.75323853 61.84267029 3.64710205 61.28690308 2.50744629 60.71429443 C-2.53073499 58.19275963 -7.57833889 55.70760205 -12.68945312 53.33691406 C-13.55874451 52.93356842 -14.42803589 52.53022278 -15.32366943 52.11465454 C-16.9048053 51.38706515 -18.48966559 50.66748115 -20.0791626 49.95834351 C-26.33794097 47.088903 -31.54118877 43.72848313 -34.8125 37.4375 C-35.21082031 36.69371094 -35.60914063 35.94992187 -36.01953125 35.18359375 C-38.99740714 28.55159126 -38.88568542 21.72755273 -36.4375 14.9375 C-33.09555833 7.42397379 -28.32338059 1.6326353 -20.53125 -1.3828125 C-13.72995059 -3.04115402 -6.43874232 -2.86166326 0 0 Z " fill="#FEE165" transform="translate(51,291)"/>
<path d="M0 0 C4.19043727 1.61935797 8.1009811 3.70235602 12.0625 5.8125 C13.82286737 6.72212126 15.58325145 7.63171441 17.34518433 8.53829956 C19.12271474 9.45384222 20.89754632 10.37461839 22.67236328 11.29541016 C27.23505442 13.63265957 31.85999709 15.82163798 36.5 18 C47.14114109 23.05743844 57.72824431 28.22691021 68.29052734 33.44677734 C70.21273119 34.39443388 72.13703723 35.33783894 74.06347656 36.27685547 C76.79169284 37.60788859 79.51175143 38.95437977 82.23046875 40.3046875 C83.05552414 40.70332001 83.88057953 41.10195251 84.7306366 41.51266479 C89.15680013 43.73363398 92.34805147 45.64050029 95 50 C95.47579553 54.44075828 95.35703218 58.14303825 93 62 C92.0925 62.391875 91.185 62.78375 90.25 63.1875 C86.72379367 65.15403814 86.09632348 66.14894938 84.1875 69.5625 C77.05203771 82.19668193 66.64515326 90.42204074 53.0625 95.5 C40.17917645 99.01078403 24.06763226 98.98951499 12 93 C10.98808594 92.50242187 9.97617188 92.00484375 8.93359375 91.4921875 C-5.27602007 83.84496104 -14.04236827 72.23041672 -19 57 C-22.55711349 44.24693969 -21.89953805 29.73195915 -15.859375 17.734375 C-14.74254565 15.8273335 -14.74254565 15.8273335 -15.125 12.6875 C-14.96231045 7.88815834 -13.70025559 5.93465815 -11 2 C-7.19186603 -0.53875598 -4.39709076 -0.77731276 0 0 Z " fill="#EFAB65" transform="translate(208,415)"/>
<path d="M0 0 C3.6272631 1.64090473 4.08360073 3.5355531 5.57421875 7.12109375 C6.39673698 9.52137928 7.04532342 11.82823566 7.64453125 14.28515625 C9.93490534 23.40441595 9.93490534 23.40441595 16.2890625 29.921875 C19.61009229 31.68875324 23.03866377 33.08605432 26.56542969 34.38525391 C35.17723301 37.73973301 35.17723301 37.73973301 37.625 40.1875 C38.1875 42.4375 38.1875 42.4375 37.625 45.1875 C33.86917332 48.16086279 30.27180311 50.01345622 25.7421875 51.49609375 C17.16005695 54.25425105 17.16005695 54.25425105 11.43359375 60.7734375 C10.07209676 64.15788251 9.10185351 67.63219344 8.19287109 71.16162109 C7.3169417 74.28649731 6.03776274 77.21329729 4.75 80.1875 C4.34007812 81.156875 3.93015625 82.12625 3.5078125 83.125 C3.21648438 83.805625 2.92515625 84.48625 2.625 85.1875 C0.3125 85.5 0.3125 85.5 -2.375 85.1875 C-4.97694723 82.24534659 -5.80219133 78.87168993 -6.85546875 75.16796875 C-9.74283881 63.71902413 -9.74283881 63.71902413 -17.17578125 55.10546875 C-20.44618468 53.35072076 -23.82887131 52.0652811 -27.34814453 50.90307617 C-30.82305112 49.67626923 -34.27879214 48.19625224 -37.375 46.1875 C-38.5 43.625 -38.5 43.625 -38.375 41.1875 C-36.21352443 37.94528665 -35.39853914 37.51270943 -31.9453125 36.06640625 C-30.62853516 35.49889648 -30.62853516 35.49889648 -29.28515625 34.91992188 C-27.43642084 34.14334929 -25.5874643 33.36730292 -23.73828125 32.59179688 C-22.85785156 32.21216797 -21.97742188 31.83253906 -21.0703125 31.44140625 C-20.26609863 31.10439697 -19.46188477 30.7673877 -18.63330078 30.42016602 C-13.93277841 27.85444305 -11.93200415 24.85530916 -10.3046875 19.8359375 C-9.96566406 18.82015625 -9.62664063 17.804375 -9.27734375 16.7578125 C-8.93832031 15.70335938 -8.59929688 14.64890625 -8.25 13.5625 C-7.56507742 11.46444719 -6.87521021 9.36800015 -6.1796875 7.2734375 C-5.88046387 6.3457959 -5.58124023 5.4181543 -5.27294922 4.46240234 C-4.07843383 1.43616679 -3.3281515 0.2627488 0 0 Z " fill="#FEF2A8" transform="translate(38.375,98.8125)"/>
<path d="M0 0 C4.19043727 1.61935797 8.1009811 3.70235602 12.0625 5.8125 C13.82286737 6.72212126 15.58325145 7.63171441 17.34518433 8.53829956 C19.12271474 9.45384222 20.89754632 10.37461839 22.67236328 11.29541016 C27.23505442 13.63265957 31.85999709 15.82163798 36.5 18 C47.14114109 23.05743844 57.72824431 28.22691021 68.29052734 33.44677734 C70.21273119 34.39443388 72.13703723 35.33783894 74.06347656 36.27685547 C76.79169284 37.60788859 79.51175143 38.95437977 82.23046875 40.3046875 C83.05552414 40.70332001 83.88057953 41.10195251 84.7306366 41.51266479 C89.15680013 43.73363398 92.34805147 45.64050029 95 50 C95.47329275 54.417399 95.42602013 58.2027511 93 62 C90.34210278 63.73576961 89.01882422 64.52886882 86 65 C78.16215122 63.00227492 71.12899848 59.22589253 63.96313477 55.56616211 C60.38559253 53.73953672 56.79780267 51.93323013 53.2109375 50.125 C52.49875061 49.76539185 51.78656372 49.40578369 51.05279541 49.03527832 C45.24096555 46.10623047 39.38470732 43.27974352 33.5 40.5 C24.63987276 36.28632529 15.80007646 32.03128142 6.99804688 27.69750977 C5.55404605 26.98889765 4.10794498 26.28454764 2.65966797 25.5847168 C0.62788646 24.60187849 -1.39563221 23.60366189 -3.41796875 22.6015625 C-5.17790161 21.74038818 -5.17790161 21.74038818 -6.97338867 20.86181641 C-10.88110405 18.45798988 -13.22025093 15.85190404 -15 11.625 C-15 7.77181955 -13.33559894 5.01049603 -11 2 C-7.19186603 -0.53875598 -4.39709076 -0.77731276 0 0 Z " fill="#D0844B" transform="translate(208,415)"/>
<path d="M0 0 C0.7852002 0.71857178 1.57040039 1.43714355 2.37939453 2.17749023 C6.50413718 5.60574119 11.13284862 7.81636687 15.9296875 10.16015625 C16.8788504 10.63190781 17.82801331 11.10365936 18.80593872 11.58970642 C21.82526494 13.08823703 24.84996188 14.57553921 27.875 16.0625 C29.90010811 17.06501112 31.92485152 18.06825929 33.94921875 19.07226562 C37.67988944 20.92132789 41.41262976 22.76606074 45.14794922 24.60571289 C49.44034041 26.72062052 53.72229282 28.85555626 58 31 C57.02187673 35.60237713 55.08143045 36.90494974 51.27734375 39.5390625 C50.52582031 40.02117187 49.77429688 40.50328125 49 41 C48.04287109 41.63035156 48.04287109 41.63035156 47.06640625 42.2734375 C38.88679167 46.76983382 26.98910147 46.44802802 18.125 44 C8.94341892 40.18474107 1.50167714 33.85178267 -3 25 C-3.37253906 24.2678125 -3.74507812 23.535625 -4.12890625 22.78125 C-6.39221049 17.40235121 -5.93112097 13.7431214 -3.97265625 8.30859375 C-2.77415127 5.46394941 -1.49337715 2.70230151 0 0 Z " fill="#FEE165" transform="translate(194,429)"/>
<path d="M0 0 C1.65 0 3.3 0 5 0 C5.7727205 1.83253872 6.54306961 3.66607742 7.3125 5.5 C7.74175781 6.5209375 8.17101562 7.541875 8.61328125 8.59375 C10 12 10 12 10.53417969 14.04418945 C11.42696418 17.19715536 12.09142697 19.34702043 14.81469727 21.30419922 C17.0524758 22.39238379 19.29430511 23.31637394 21.625 24.1875 C27.64252582 26.50306753 27.64252582 26.50306753 30 28 C31.0234375 30.73828125 31.0234375 30.73828125 31 33 C25.88458205 36.73287256 18.466482 42 12 42 C11.88527344 42.67675781 11.77054688 43.35351562 11.65234375 44.05078125 C10.87957919 47.54441744 9.75977352 50.81594936 8.5625 54.1875 C8.13066406 55.41855469 7.69882813 56.64960937 7.25390625 57.91796875 C6 61 6 61 4 63 C1.96435547 62.87548828 1.96435547 62.87548828 0 62 C-0.87451172 60.25341797 -0.87451172 60.25341797 -1.4296875 57.9921875 C-3.87426085 47.84898687 -3.87426085 47.84898687 -10.42578125 40.25390625 C-13.81177862 38.45434902 -17.36131166 37.20107739 -21 36 C-22.34650559 35.36035564 -23.68747118 34.70674629 -25 34 C-25 32.02 -25 30.04 -25 28 C-23.87980469 27.55269531 -22.75960937 27.10539062 -21.60546875 26.64453125 C-20.13246638 26.03468951 -18.65982889 25.42396591 -17.1875 24.8125 C-16.44951172 24.52052734 -15.71152344 24.22855469 -14.95117188 23.92773438 C-9.50449772 21.63569503 -7.49599146 19.64867952 -5.22192383 14.10229492 C-4.38055129 11.97639553 -3.59058256 9.83731329 -2.8125 7.6875 C-2.53986328 6.94693359 -2.26722656 6.20636719 -1.98632812 5.44335938 C-1.31968797 3.63056598 -0.65921459 1.81550684 0 0 Z " fill="#FEF2A8" transform="translate(142,0)"/>
<path d="M0 0 C2.92483867 1.82547936 5.43429205 3.86858411 7 7 C7.44434528 10.23737276 7.66260209 12.79428145 6.046875 15.734375 C2.3607085 20.35267555 -2.32805332 23.52232557 -7.125 26.8984375 C-14.00611432 31.92838248 -20.0609329 37.74597884 -25.52734375 44.2734375 C-26.01332031 44.84320313 -26.49929687 45.41296875 -27 46 C-27.46792969 46.56074219 -27.93585938 47.12148437 -28.41796875 47.69921875 C-31.03156585 49.84817637 -33.51513358 49.46410824 -36.7734375 49.36328125 C-40.03614855 48.83094418 -41.77002644 47.3693469 -44 45 C-45.71082952 41.57834095 -45.90488355 38.64319127 -45 35 C-42.41748488 30.94431806 -39.27518892 27.50732866 -36 24 C-35.33871094 23.25878906 -34.67742187 22.51757812 -33.99609375 21.75390625 C-26.48425307 13.74225621 -11.92734006 -1.66982761 0 0 Z " fill="#FFFEFC" transform="translate(237,101)"/>
<path d="M0 0 C4.48457771 2.58761055 7.7077245 6.45047466 9.234375 11.421875 C10.42779989 17.57994741 9.919015 22.1734854 6.89453125 27.61328125 C3.87918163 31.9461067 -0.22538319 35.12015616 -5.375 36.4375 C-11.90178383 37.25334798 -16.9561048 36.23441296 -22.375 32.4375 C-27.751476 26.77805158 -28.90513984 22.16145947 -28.74609375 14.48046875 C-28.0682175 8.92188351 -25.6875839 5.57742493 -21.6484375 1.83984375 C-15.16667569 -2.94812434 -7.31588379 -3.1748175 0 0 Z " fill="#FFE265" transform="translate(502.375,65.5625)"/>
<path d="M0 0 C3.38687273 2.63423435 5.02970506 4.30234751 5.6875 8.625 C5.09598901 12.85007852 4.18790094 14.60712923 1.25 17.75 C-4.98645695 20.99708089 -12.65867291 23.43185837 -19.75 22.75 C-22.87804677 21.53565664 -23.55767678 20.5606708 -25.75 17.75 C-26.85618294 14.64242423 -27.15499116 12.02464279 -26.75 8.75 C-24.13864776 3.62401227 -21.2240252 2.30118599 -15.875 0.375 C-10.24332762 -1.27649656 -5.53685928 -2.51675422 0 0 Z " fill="#FFFEFB" transform="translate(281.75,84.25)"/>
<path d="M0 0 C2.4375 1.0625 2.4375 1.0625 4 3 C5.07845965 6.88245475 5.39223942 9.0710119 3.8125 12.8125 C1.8836966 15.14036617 0.89710361 16.17225611 -2 17 C-5.4631425 16.8557024 -7.47465004 16.34562497 -10.375 14.4375 C-12.68780769 10.96828847 -12.79710231 8.05193677 -12 4 C-9.12138907 -0.79768489 -5.11359841 -0.84001617 0 0 Z " fill="#FFE266" transform="translate(61,43)"/>
</svg>
